<svg xmlns="http://www.w3.org/2000/svg" width="1321.454" height="1469.573" viewBox="0 0 1321.454 1469.573">
  <path id="blob_2" d="M846.9,210.37c172.542-10.439,354.128,12.538,487.917,121.993,134.8,110.283,201.885,283.468,219.484,456.742,16.574,163.184-50.3,314.875-126.354,460.2C1348,1402.058,1272.43,1578.912,1110.3,1637.535c-162.009,58.579-336.862-20.685-492.065-95.455-139.806-67.353-271.61-161.186-334.831-302.909-59.211-132.733-9.621-278.877,11.133-422.728,21.7-150.426,9.215-315.56,111.591-427.891C516.193,267.782,683.793,220.238,846.9,210.37" transform="translate(-245.336 -198.095)" fill="#a4d6d5" stroke="#e05151" stroke-width="20"/>
</svg>
